<?xml version="1.0" encoding="UTF-8"?>
<!DOCTYPE svg PUBLIC "-//W3C//DTD SVG 1.1//EN" "http://www.w3.org/Graphics/SVG/1.1/DTD/svg11.dtd">
<!-- Creator: CorelDRAW 2017 -->
<svg xmlns="http://www.w3.org/2000/svg" xml:space="preserve" width="50px" height="50px" version="1.1" style="shape-rendering:geometricPrecision; text-rendering:geometricPrecision; image-rendering:optimizeQuality; fill-rule:evenodd; clip-rule:evenodd"
viewBox="0 0 50 50"
 xmlns:xlink="http://www.w3.org/1999/xlink">
 <defs>
  <style type="text/css">
   <![CDATA[
    .str0 {stroke:white;stroke-width:4.13;stroke-miterlimit:22.9256}
    .fil1 {fill:none}
    .fil0 {fill:black}
    .fil2 {fill:white}
   ]]>
  </style>
 </defs>
 <g id="Camada_x0020_1">
  <metadata id="CorelCorpID_0Corel-Layer"/>
  <rect class="fil0" x="637.87" y="-345.94" width="652.1" height="556.27"/>
  <path class="fil1 str0" d="M1125.02 -189.15l39.65 -39.65m-39.65 0.01l39.65 39.65"/>
  <rect class="fil2" x="744.85" y="-208.65" width="42" height="4"/>
  <path class="fil2" d="M935.85 -191.65l0 -26 26 0 0 26 -26 0zm30 -8l0 -22 -21 0 0 -4 26 0 0 26 -5 0zm-25 -22l-9 0 0 34 34 0 0 -8 9 0 0 -34 -34 0 0 8z"/>
  <path class="fil2" d="M915.85 28.36l0 -33 33 0 0 33 -33 0zm38 -38l-43 0 0 43 43 0 0 -43z"/>
  <rect class="fil2" x="4.07" y="30" width="42" height="4"/>
 </g>
</svg>
